# xmcd CD database file
#
# Track frame offsets:
#	150
#	28595
#	71430
#	116590
#	148495
#	187332
#	229317
#	260157
#	286605
#
# Disc length: 4300 seconds
#
# Revision: 1
# Processed by: cddbd v1.4PL0 Copyright (c) Steve Scherf et al.
# Submitted via: CDex 1.40Beta9
#
DISCID=8f10ca09
DTITLE=Oquisha Paradox - World of Worlds
DYEAR=1995
DGENRE=Blues
TTITLE0=Fire and Water
TTITLE1=Wheels of Life
TTITLE2=Ra Dog
TTITLE3=Whisper to My Sister
TTITLE4=Children of Darkness
TTITLE5=When We Dream
TTITLE6=Worlds of Worlds
TTITLE7=Journey to the Underworld
TTITLE8=Ancestral Echoes
EXTD=YEAR: 1995 ID3G: 0
EXTT0=
EXTT1=
EXTT2=
EXTT3=
EXTT4=
EXTT5=
EXTT6=
EXTT7=
EXTT8=
PLAYORDER=
